<?xml version="1.0" encoding="UTF-8" standalone="no"?>
<svg width="295px" height="66px" viewBox="0 0 295 66" version="1.1" xmlns="http://www.w3.org/2000/svg" xmlns:xlink="http://www.w3.org/1999/xlink">
    <!-- Generator: Sketch 3.7.2 (28276) - http://www.bohemiancoding.com/sketch -->
    <title>logo</title>
    <desc>Created with Sketch.</desc>
    <defs></defs>
    <g id="Page-1" stroke="none" stroke-width="1" fill="none" fill-rule="evenodd">
        <g id="meh">
            <g id="hype-logo">
                <g id="logo">
                    <g id="Group-3" transform="translate(229.133338, 0.000000)"></g>
                    <g id="Group-6" transform="translate(3.637037, 0.000000)"></g>
                    <path d="M294.600006,13.5051829 L294.600006,2.20564282 C294.600006,0.987425394 293.6155,0 292.401234,0 L244.773764,0 L233.583505,0 C231.125686,0 229.133338,1.99857414 229.133338,4.46407401 L229.133338,15.7494743 L229.133338,24.9985945 L229.133338,40.7094202 L229.133338,49.8809289 L229.133338,61.1503042 C229.133338,63.6068489 231.11206,65.6018095 233.560952,65.6142211 L244.79522,65.6712514 L292.401234,65.5141431 C293.6155,65.5141431 294.600006,64.5267177 294.600006,63.3085003 L294.600006,52.0089602 C294.600006,50.7907428 293.6155,49.8033174 292.401234,49.8033174 L245.566411,49.8033174 C245.140408,49.8033174 244.79522,49.4568937 244.79522,49.0297164 L244.79522,41.4646396 C244.79522,41.0373051 245.140408,40.6910385 245.566411,40.6910385 L277.451341,40.6910385 C278.665607,40.6910385 279.650113,39.7036131 279.650113,38.4853957 L279.650113,27.1858557 C279.650113,25.9676382 278.665607,24.9802128 277.451341,24.9802128 L245.566411,24.9802128 C245.140408,24.9802128 244.79522,24.6337891 244.79522,24.2066118 L244.79522,16.4844267 C244.79522,16.0570923 245.140408,15.7108257 245.566411,15.7108257 L292.401234,15.7108257 C293.6155,15.7108257 294.600006,14.7234003 294.600006,13.5051829" id="Fill-1" fill="#4335B7"></path>
                    <path d="M49.7672273,25.53882 L15.6994408,25.53882 L15.6994408,2.41475391 C15.6994408,1.08106192 14.6191623,0 13.2864367,0 L2.41300405,0 C1.08027852,0 0,1.08106192 0,2.41475391 L0,24.9902678 L0,40.7010935 L0,63.2564975 C0,64.5900323 1.08027852,65.6712514 2.41300405,65.6712514 L13.2864367,65.6712514 C14.6191623,65.6712514 15.6994408,64.5900323 15.6994408,63.2564975 L15.6994408,40.1324314 L49.7672273,40.1324314 L49.7672273,63.2564975 C49.7672273,64.5900323 50.8475058,65.6712514 52.1802313,65.6712514 L63.053664,65.6712514 C64.3863895,65.6712514 65.466668,64.5900323 65.466668,63.2564975 L65.466668,40.7010935 L65.466668,24.9902678 L65.466668,2.41475391 C65.466668,1.08106192 64.3863895,0 63.053664,0 L52.1802313,0 C50.8475058,0 49.7672273,1.08106192 49.7672273,2.41475391 L49.7672273,25.53882 Z" id="Fill-4" fill="#4335B7"></path>
                    <path d="M118.188913,40.9713218 L141.530067,3.18161866 C142.388801,1.79148879 141.387024,0 139.751159,0 L127.987084,0 C127.354573,0 126.767275,0.32728366 126.435187,0.864683114 L110.195013,27.1480302 C109.697512,27.9531071 108.524649,27.9531071 108.027147,27.1480302 L91.7869729,0.864683114 C91.4548849,0.32728366 90.867587,0 90.235076,0 L78.4710008,0 C76.8351366,0 75.8335164,1.79148879 76.692093,3.18161866 L99.9229711,40.7928178 C100.526338,41.7697933 100.827864,42.9024684 100.789582,44.0494553 L100.789582,44.0494553 L100.789582,61.6711876 C100.789582,63.8803917 102.583613,65.6712514 104.796536,65.6712514 L113.308575,65.6712514 C115.521497,65.6712514 117.315371,63.8803917 117.315371,61.6711876 L117.315371,44.0494553 L117.322302,43.8401259 C117.356173,42.8247759 117.654863,41.836005 118.188913,40.9713218" id="Fill-7" fill="#4335B7"></path>
                    <path d="M202.652922,27.3630214 L169.218777,27.3630214 C168.796913,27.3630214 168.454999,27.0305496 168.454999,26.6205269 L168.454999,15.3361059 C168.454999,14.9260832 168.796913,14.5936114 169.218777,14.5936114 L202.652922,14.5936114 C203.852663,14.5936114 204.825371,15.5388592 204.825371,16.7050801 L204.825371,25.2515527 C204.825371,26.4177736 203.852663,27.3630214 202.652922,27.3630214 L202.652922,27.3630214 Z M185.56739,0 L168.454999,0 L158.128849,0.0182682618 C155.159614,0.0236227523 152.755559,2.43960037 152.755559,5.41811446 L152.755559,15.7763764 L152.755559,24.9791707 L152.755559,40.7276722 L152.755559,62.5661193 C152.755559,64.2809736 154.141348,65.6712514 155.85086,65.6712514 L165.359541,65.6712514 C167.069053,65.6712514 168.454999,64.2809736 168.454999,62.5661193 L168.454999,41.9464488 C168.454999,41.3069021 168.971668,40.788619 169.609065,40.788619 L185.56739,40.788619 L206.728195,40.7722405 C213.083329,40.7475154 218.222227,35.5727152 218.222227,29.1977218 L218.222227,24.9791707 L218.222227,15.7763764 L218.222227,12.5345473 C218.222227,5.62378989 212.643744,0.0179532917 205.754359,0.00566946055 L185.56739,0 Z" id="Fill-9" fill="#4335B7"></path>
                </g>
            </g>
        </g>
    </g>
</svg>