<?xml version="1.0" encoding="UTF-8" standalone="no"?>
<svg width="290px" height="66px" viewBox="0 0 290 66" version="1.1" xmlns="http://www.w3.org/2000/svg" xmlns:xlink="http://www.w3.org/1999/xlink">
    <!-- Generator: Sketch 3.7.2 (28276) - http://www.bohemiancoding.com/sketch -->
    <title>hype-logo@1x</title>
    <desc>Created with Sketch.</desc>
    <defs></defs>
    <g id="Page-1" stroke="none" stroke-width="1" fill="none" fill-rule="evenodd">
        <g id="meh" transform="translate(-5.000000, 0.000000)">
            <g id="hype-logo" transform="translate(3.000000, 0.000000)">
                <g id="logo">
                    <g id="Group-3" transform="translate(226.133338, 0.000000)"></g>
                    <g id="Group-6" transform="translate(0.637037, 0.000000)"></g>
                    <path d="M291.600006,13.5051829 L291.600006,2.20564282 C291.600006,0.987425394 290.6155,0 289.401234,0 L241.773764,0 L230.583505,0 C228.125686,0 226.133338,1.99857414 226.133338,4.46407401 L226.133338,15.7494743 L226.133338,24.9985945 L226.133338,40.7094202 L226.133338,49.8809289 L226.133338,61.1503042 C226.133338,63.6068489 228.11206,65.6018095 230.560952,65.6142211 L241.79522,65.6712514 L289.401234,65.5141431 C290.6155,65.5141431 291.600006,64.5267177 291.600006,63.3085003 L291.600006,52.0089602 C291.600006,50.7907428 290.6155,49.8033174 289.401234,49.8033174 L242.566411,49.8033174 C242.140408,49.8033174 241.79522,49.4568937 241.79522,49.0297164 L241.79522,41.4646396 C241.79522,41.0373051 242.140408,40.6910385 242.566411,40.6910385 L274.451341,40.6910385 C275.665607,40.6910385 276.650113,39.7036131 276.650113,38.4853957 L276.650113,27.1858557 C276.650113,25.9676382 275.665607,24.9802128 274.451341,24.9802128 L242.566411,24.9802128 C242.140408,24.9802128 241.79522,24.6337891 241.79522,24.2066118 L241.79522,16.4844267 C241.79522,16.0570923 242.140408,15.7108257 242.566411,15.7108257 L289.401234,15.7108257 C290.6155,15.7108257 291.600006,14.7234003 291.600006,13.5051829" id="Fill-1" fill="#4335B7"></path>
                    <path d="M51.7672273,25.53882 L17.6994408,25.53882 L17.6994408,2.41475391 C17.6994408,1.08106192 16.6191623,0 15.2864367,0 L4.41300405,0 C3.08027852,0 2,1.08106192 2,2.41475391 L2,24.9902678 L2,40.7010935 L2,63.2564975 C2,64.5900323 3.08027852,65.6712514 4.41300405,65.6712514 L15.2864367,65.6712514 C16.6191623,65.6712514 17.6994408,64.5900323 17.6994408,63.2564975 L17.6994408,40.1324314 L51.7672273,40.1324314 L51.7672273,63.2564975 C51.7672273,64.5900323 52.8475058,65.6712514 54.1802313,65.6712514 L65.053664,65.6712514 C66.3863895,65.6712514 67.466668,64.5900323 67.466668,63.2564975 L67.466668,40.7010935 L67.466668,24.9902678 L67.466668,2.41475391 C67.466668,1.08106192 66.3863895,0 65.053664,0 L54.1802313,0 C52.8475058,0 51.7672273,1.08106192 51.7672273,2.41475391 L51.7672273,25.53882 Z" id="Fill-4" fill="#4335B7"></path>
                    <path d="M118.188913,40.9713218 L141.530067,3.18161866 C142.388801,1.79148879 141.387024,0 139.751159,0 L127.987084,0 C127.354573,0 126.767275,0.32728366 126.435187,0.864683114 L110.195013,27.1480302 C109.697512,27.9531071 108.524649,27.9531071 108.027147,27.1480302 L91.7869729,0.864683114 C91.4548849,0.32728366 90.867587,0 90.235076,0 L78.4710008,0 C76.8351366,0 75.8335164,1.79148879 76.692093,3.18161866 L99.9229711,40.7928178 C100.526338,41.7697933 100.827864,42.9024684 100.789582,44.0494553 L100.789582,44.0494553 L100.789582,61.6711876 C100.789582,63.8803917 102.583613,65.6712514 104.796536,65.6712514 L113.308575,65.6712514 C115.521497,65.6712514 117.315371,63.8803917 117.315371,61.6711876 L117.315371,44.0494553 L117.322302,43.8401259 C117.356173,42.8247759 117.654863,41.836005 118.188913,40.9713218" id="Fill-7" fill="#4335B7"></path>
                    <path d="M199.652922,27.3630214 L166.218777,27.3630214 C165.796913,27.3630214 165.454999,27.0305496 165.454999,26.6205269 L165.454999,15.3361059 C165.454999,14.9260832 165.796913,14.5936114 166.218777,14.5936114 L199.652922,14.5936114 C200.852663,14.5936114 201.825371,15.5388592 201.825371,16.7050801 L201.825371,25.2515527 C201.825371,26.4177736 200.852663,27.3630214 199.652922,27.3630214 L199.652922,27.3630214 Z M182.56739,0 L165.454999,0 L155.128849,0.0182682618 C152.159614,0.0236227523 149.755559,2.43960037 149.755559,5.41811446 L149.755559,15.7763764 L149.755559,24.9791707 L149.755559,40.7276722 L149.755559,62.5661193 C149.755559,64.2809736 151.141348,65.6712514 152.85086,65.6712514 L162.359541,65.6712514 C164.069053,65.6712514 165.454999,64.2809736 165.454999,62.5661193 L165.454999,41.9464488 C165.454999,41.3069021 165.971668,40.788619 166.609065,40.788619 L182.56739,40.788619 L203.728195,40.7722405 C210.083329,40.7475154 215.222227,35.5727152 215.222227,29.1977218 L215.222227,24.9791707 L215.222227,15.7763764 L215.222227,12.5345473 C215.222227,5.62378989 209.643744,0.0179532917 202.754359,0.00566946055 L182.56739,0 Z" id="Fill-9" fill="#4335B7"></path>
                </g>
            </g>
        </g>
    </g>
</svg>