<?xml version="1.0" encoding="UTF-8"?>
<svg width="863px" height="236px" viewBox="0 0 863 236" version="1.1" xmlns="http://www.w3.org/2000/svg" xmlns:xlink="http://www.w3.org/1999/xlink">
    <!-- Generator: Sketch 42 (36781) - http://www.bohemiancoding.com/sketch -->
    <title>name</title>
    <desc>Created with Sketch.</desc>
    <defs>
        <polygon id="path-1" points="0 85.7939 0 0.4739 97.6976 0.4739 97.6976 85.7939 4.93298436e-15 85.7939"></polygon>
        <polygon id="path-3" points="0 235.53 862.083 235.53 862.083 0 0 0"></polygon>
    </defs>
    <g id="Page-1" stroke="none" stroke-width="1" fill="none" fill-rule="evenodd">
        <g id="name">
            <g id="Group-3" transform="translate(0.000000, 2.530000)">
                <mask id="mask-2" fill="white">
                    <use xlink:href="#path-1"></use>
                </mask>
                <g id="Clip-2"></g>
                <path d="M61.7666,38.5679 C64.0896,36.7259 65.2516,34.0819 65.2516,30.6369 C65.2516,27.1929 64.1286,24.5679 61.8876,22.7659 C59.6426,20.9629 56.3596,20.0619 52.0336,20.0619 L30.7636,20.0619 L30.7636,41.3319 L51.9126,41.3319 C56.1586,41.3319 59.4426,40.4119 61.7666,38.5679 M87.7236,8.1649 C94.3716,13.2929 97.6976,20.4639 97.6976,29.6749 C97.6976,36.0049 96.1746,41.5119 93.1306,46.1979 C90.0856,50.8849 85.7596,54.5109 80.1526,57.0739 C74.5436,59.6389 67.9746,60.9189 60.4446,60.9189 L30.7636,60.9189 L30.7636,85.7939 L-0.0004,85.7939 L-0.0004,0.4739 L59.8446,0.4739 C71.7806,0.4739 81.0726,3.0389 87.7236,8.1649" id="Fill-1" fill="#ffce08" mask="url(#mask-2)"></path>
            </g>
            <path d="M159.2231,53.5954 L153.2151,38.8144 C151.2921,34.3284 149.8691,30.7834 148.9491,28.1794 C148.0271,25.5774 147.3261,22.9934 146.8461,20.4284 L146.4851,20.4284 C146.0041,22.9934 145.3021,25.5564 144.3821,28.1194 C143.4601,30.6844 142.0391,34.2484 140.1161,38.8144 L134.1081,53.5954 L159.2231,53.5954 Z M166.6731,72.1014 L126.6571,72.1014 L120.0481,88.3244 L87.0021,88.3244 L126.6571,3.0044 L166.5531,3.0044 L206.2091,88.3244 L173.2831,88.3244 L166.6731,72.1014 Z" id="Fill-4" fill="#ffce08"></path>
            <path d="M228.4995,86.341 C218.5255,83.018 210.8955,78.791 205.6075,73.663 L225.4355,56.359 C229.9205,60.366 235.3675,63.689 241.7785,66.333 C248.1865,68.977 254.8765,70.299 261.8465,70.299 C274.3435,70.299 280.5925,67.976 280.5925,63.329 C280.5925,61.727 279.9315,60.546 278.6095,59.784 C277.2885,59.024 274.8245,58.443 271.2195,58.041 L245.7435,55.037 C234.7675,53.676 226.6555,50.852 221.4095,46.565 C216.1615,42.28 213.5385,36.05 213.5385,27.879 C213.5385,22.111 215.4005,17.124 219.1265,12.918 C222.8515,8.712 228.2775,5.509 235.4095,3.304 C242.5385,1.102 251.1095,0 261.1255,0 C270.8175,0 279.9315,1.081 288.4635,3.244 C296.9955,5.407 304.3865,8.694 310.6345,13.098 L293.6905,31.124 C290.0855,27.921 285.1985,25.356 279.0305,23.433 C272.8605,21.51 266.3325,20.549 259.4425,20.549 C249.0275,20.549 243.8205,22.552 243.8205,26.557 C243.8205,28.239 244.6025,29.483 246.1645,30.282 C247.7265,31.084 250.6295,31.724 254.8765,32.205 L276.8675,34.368 C285.1985,35.251 291.8675,36.672 296.8755,38.634 C301.8815,40.598 305.5465,43.341 307.8715,46.866 C310.1935,50.392 311.3555,54.878 311.3555,60.324 C311.3555,66.894 309.3125,72.503 305.2275,77.148 C301.1415,81.796 295.2535,85.32 287.5625,87.723 C279.8715,90.127 270.6975,91.328 260.0435,91.328 C248.9885,91.328 238.4735,89.665 228.4995,86.341" id="Fill-6" fill="#ffce08"></path>
            <path d="M356.0557,62.6076 C360.7017,66.8556 366.8707,68.9766 374.5617,68.9766 C382.2527,68.9766 388.3997,66.8556 393.0077,62.6076 C397.6137,58.3626 399.9177,52.7146 399.9177,45.6646 C399.9177,38.6156 397.6137,32.9466 393.0077,28.6606 C388.3997,24.3756 382.2527,22.2316 374.5617,22.2316 C369.5147,22.2316 365.0687,23.2126 361.2227,25.1756 C357.3777,27.1396 354.3917,29.8826 352.2707,33.4066 C350.1467,36.9326 349.0857,41.0186 349.0857,45.6646 C349.0857,52.7146 351.4087,58.3626 356.0557,62.6076 M420.5867,89.5256 C423.7897,89.5256 426.8347,89.4056 429.7197,89.1656 L429.7197,111.5166 C426.6737,111.9976 423.6697,112.2376 420.7067,112.2376 C410.6917,112.2376 402.2797,110.4346 395.4717,106.8296 C388.6607,103.2246 383.4937,98.0166 379.9697,91.2086 C378.8467,91.2866 377.0437,91.3286 374.5617,91.3286 C362.8647,91.3286 352.6497,89.4656 343.9187,85.7406 C335.1857,82.0146 328.4567,76.7086 323.7307,69.8176 C319.0027,62.9286 316.6407,54.8776 316.6407,45.6646 C316.6407,36.4526 319.0027,28.4006 323.7307,21.5096 C328.4567,14.6216 335.1857,9.3136 343.9187,5.5876 C352.6497,1.8626 362.8647,0.0006 374.5617,0.0006 C386.2577,0.0006 396.4517,1.8626 405.1447,5.5876 C413.8367,9.3136 420.5447,14.6216 425.2727,21.5096 C429.9987,28.4006 432.3627,36.4526 432.3627,45.6646 C432.3627,55.3576 429.7587,63.7706 424.5517,70.8996 C419.3437,78.0306 412.0137,83.3176 402.5607,86.7616 C407.4467,88.6036 413.4547,89.5256 420.5867,89.5256" id="Fill-8" fill="#ffce08"></path>
            <path d="M473.2178,3.0041 L473.2178,46.9861 C473.2178,53.4751 474.9608,58.5431 478.4458,62.1871 C481.9298,65.8341 487.0768,67.6551 493.8868,67.6551 C500.2958,67.6551 505.3218,65.7921 508.9678,62.0671 C512.6128,58.3421 514.4358,53.3161 514.4358,46.9861 L514.4358,3.0041 L545.1988,3.0041 L545.1988,50.7111 C545.1988,58.9631 543.2168,66.1531 539.2508,72.2811 C535.2848,78.4101 529.4568,83.1171 521.7658,86.4011 C514.0748,89.6851 504.7808,91.3281 493.8868,91.3281 C482.9908,91.3281 473.6988,89.6461 466.0078,86.2811 C458.3168,82.9161 452.4678,78.1701 448.4638,72.0411 C444.4558,65.9121 442.4548,58.6841 442.4548,50.3511 L442.4548,3.0041 L473.2178,3.0041 Z" id="Fill-10" fill="#ffce08"></path>
            <path d="M618.1401,53.5954 L612.1321,38.8144 C610.2091,34.3284 608.7861,30.7834 607.8661,28.1794 C606.9441,25.5774 606.2431,22.9934 605.7631,20.4284 L605.4021,20.4284 C604.9211,22.9934 604.2191,25.5564 603.2991,28.1194 C602.3771,30.6844 600.9561,34.2484 599.0331,38.8144 L593.0251,53.5954 L618.1401,53.5954 Z M625.5901,72.1014 L585.5741,72.1014 L578.9651,88.3244 L545.9191,88.3244 L585.5741,3.0044 L625.4701,3.0044 L665.1271,88.3244 L632.2001,88.3244 L625.5901,72.1014 Z" id="Fill-12" fill="#ffce08"></path>
            <polygon id="Fill-14" fill="#ffce08" points="675.0996 3.0041 705.8636 3.0041 705.8636 64.7711 759.6986 64.7711 759.6986 88.3241 675.0996 88.3241"></polygon>
            <polygon id="Fill-16" fill="#ffce08" points="862.0825 67.655 862.0825 88.324 772.0755 88.324 772.0755 3.004 861.2405 3.004 861.2405 23.673 802.8385 23.673 802.8385 35.81 859.1975 35.81 859.1975 54.797 802.8385 54.797 802.8385 67.655"></polygon>
            <path d="M51.5522,212.5779 C59.1622,212.5779 65.1502,210.4569 69.5172,206.2089 C73.8832,201.9639 76.0672,196.2349 76.0672,189.0249 C76.0672,182.1369 73.9042,176.7489 69.5772,172.8619 C65.2512,168.9769 59.4832,167.0339 52.2732,167.0339 L30.7632,167.0339 L30.7632,212.5779 L51.5522,212.5779 Z M0.0002,147.2059 L57.3212,147.2059 C67.9742,147.2059 77.1282,148.8099 84.7792,152.0129 C92.4282,155.2179 98.2982,159.9049 102.3842,166.0729 C106.4692,172.2429 108.5122,179.6929 108.5122,188.4249 C108.5122,197.0759 106.3492,204.7269 102.0232,211.3769 C97.6972,218.0269 91.6082,223.2129 83.7582,226.9379 C75.9052,230.6639 66.8532,232.5259 56.5992,232.5259 L0.0002,232.5259 L0.0002,147.2059 Z" id="Fill-18" fill="#ffce08"></path>
            <path d="M118.7261,182.8962 C122.8121,182.2562 125.7751,181.1152 127.6191,179.4712 C129.4601,177.8312 130.3831,175.6462 130.3831,172.9222 L130.3831,172.0812 L116.4431,172.0812 L116.4431,147.2062 L143.8411,147.2062 L143.8411,170.8792 C143.8411,176.7282 142.0181,181.7752 138.3741,186.0212 C134.7271,190.2682 128.8991,192.7102 120.8891,193.3512 L118.7261,182.8962 Z" id="Fill-20" fill="#ffce08"></path>
            <path d="M170.3369,230.5437 C160.3629,227.2197 152.7329,222.9927 147.4449,217.8657 L167.2729,200.5617 C171.7579,204.5677 177.2049,207.8917 183.6159,210.5347 C190.0239,213.1797 196.7139,214.5007 203.6839,214.5007 C216.1809,214.5007 222.4299,212.1787 222.4299,207.5307 C222.4299,205.9297 221.7689,204.7487 220.4469,203.9857 C219.1259,203.2257 216.6619,202.6457 213.0569,202.2437 L187.5809,199.2387 C176.6049,197.8777 168.4929,195.0547 163.2469,190.7677 C157.9989,186.4827 155.3759,180.2527 155.3759,172.0807 C155.3759,166.3137 157.2379,161.3267 160.9639,157.1207 C164.6889,152.9147 170.1149,149.7107 177.2469,147.5067 C184.3759,145.3047 192.9469,144.2027 202.9629,144.2027 C212.6549,144.2027 221.7689,145.2837 230.3009,147.4467 C238.8329,149.6097 246.2239,152.8957 252.4719,157.3007 L235.5279,175.3257 C231.9229,172.1227 227.0359,169.5577 220.8679,167.6347 C214.6979,165.7117 208.1699,164.7507 201.2799,164.7507 C190.8649,164.7507 185.6579,166.7547 185.6579,170.7597 C185.6579,172.4407 186.4399,173.6847 188.0019,174.4837 C189.5639,175.2857 192.4669,175.9267 196.7139,176.4067 L218.7049,178.5697 C227.0359,179.4527 233.7049,180.8737 238.7129,182.8367 C243.7189,184.8007 247.3839,187.5437 249.7089,191.0677 C252.0309,194.5947 253.1929,199.0797 253.1929,204.5267 C253.1929,211.0967 251.1499,216.7047 247.0649,221.3507 C242.9789,225.9977 237.0909,229.5227 229.3999,231.9257 C221.7089,234.3287 212.5349,235.5297 201.8809,235.5297 C190.8259,235.5297 180.3109,233.8667 170.3369,230.5437" id="Fill-22" fill="#ffce08"></path>
            <mask id="mask-4" fill="white">
                <use xlink:href="#path-3"></use>
            </mask>
            <g id="Clip-25"></g>
            <polygon id="Fill-24" fill="#ffce08" mask="url(#mask-4)" points="264.968 232.526 295.731 232.526 295.731 147.206 264.968 147.206"></polygon>
            <polygon id="Fill-26" fill="#ffce08" mask="url(#mask-4)" points="314.4766 147.2063 345.2396 147.2063 345.2396 208.9733 399.0756 208.9733 399.0756 232.5263 314.4766 232.5263"></polygon>
            <path d="M382.853,147.2063 L416.981,147.2063 L439.332,199.7203 C440.534,202.4443 441.454,205.4883 442.096,208.8533 L442.577,208.8533 C443.217,205.4883 444.139,202.4443 445.341,199.7203 L467.692,147.2063 L501.82,147.2063 L460.963,232.5263 L423.71,232.5263 L382.853,147.2063 Z" id="Fill-27" fill="#ffce08" mask="url(#mask-4)"></path>
            <path d="M557.8193,197.7976 L551.8113,183.0166 C549.8883,178.5306 548.4653,174.9856 547.5453,172.3816 C546.6233,169.7786 545.9223,167.1946 545.4423,164.6306 L545.0813,164.6306 C544.6003,167.1946 543.8983,169.7586 542.9783,172.3206 C542.0563,174.8866 540.6353,178.4506 538.7123,183.0166 L532.7043,197.7976 L557.8193,197.7976 Z M565.2693,216.3036 L525.2533,216.3036 L518.6443,232.5266 L485.5983,232.5266 L525.2533,147.2066 L565.1493,147.2066 L604.8053,232.5266 L571.8793,232.5266 L565.2693,216.3036 Z" id="Fill-28" fill="#ffce08" mask="url(#mask-4)"></path>
        </g>
    </g>
</svg>
