<svg xmlns="http://www.w3.org/2000/svg" viewBox="0 0 343.2 129.08"><defs><style>.cls-1{fill:#6d06ff;}</style></defs><title>Asset 1</title><g id="Layer_2" data-name="Layer 2"><g id="Layer_2-2" data-name="Layer 2"><path class="cls-1" d="M40.72,21.19a20.66,20.66,0,0,1-1.88,9.21,16.42,16.42,0,0,1-5.14,6.16A22.2,22.2,0,0,1,26.09,40a38.36,38.36,0,0,1-9.38,1.1V53.59H0V1.26H16.71a38.37,38.37,0,0,1,9.38,1.09A22.2,22.2,0,0,1,33.7,5.81,16.5,16.5,0,0,1,38.84,12,20.68,20.68,0,0,1,40.72,21.19Zm-24,5.8h.71q3.3,0,4.75-1.53a6,6,0,0,0,1.45-4.27,6,6,0,0,0-1.45-4.28q-1.46-1.53-4.75-1.53h-.71Z"/><path class="cls-1" d="M53.9,1.26H66.46L86.31,53.59H69.83l-1.72-4.71H52.26l-1.73,4.71H34.05Zm9.81,36.09-3.53-9.18-3.53,9.18Z"/><path class="cls-1" d="M87.25,37.35a25.37,25.37,0,0,0,3.61.86,29.71,29.71,0,0,0,3.57.63,33.84,33.84,0,0,0,4,.24q3.61,0,3.61-2.67a3,3,0,0,0-1.1-2.08A33.78,33.78,0,0,0,98.2,32q-1.7-1.29-3.61-2.86A25.66,25.66,0,0,1,91,25.5a18.65,18.65,0,0,1-2.79-4.59,14.69,14.69,0,0,1-1.1-5.84,15.13,15.13,0,0,1,1.34-6.52,13.18,13.18,0,0,1,3.69-4.71A16.67,16.67,0,0,1,97.65,1a23,23,0,0,1,6.78-1,36.47,36.47,0,0,1,3.77.2l3.37.35L115,1V15.69l-1.41-.15c-.42-.06-.89-.11-1.42-.16s-1.07-.08-1.64-.08c-.32,0-.71,0-1.18,0a7.09,7.09,0,0,0-1.34.2,2.56,2.56,0,0,0-1.09.55,1.31,1.31,0,0,0-.47,1.09c0,.42.35.95,1.06,1.57S109,20.11,110,21s2.15,1.8,3.38,2.9a23.53,23.53,0,0,1,3.37,3.77,21.68,21.68,0,0,1,2.59,4.79,15.9,15.9,0,0,1,1.06,6,18.82,18.82,0,0,1-1.1,6.47,13.71,13.71,0,0,1-3.41,5.26A16.25,16.25,0,0,1,110,53.63a25.39,25.39,0,0,1-8.55,1.29,52.65,52.65,0,0,1-5.53-.27c-1.7-.18-3.2-.41-4.51-.67A36.81,36.81,0,0,1,87.25,53Z"/><path class="cls-1" d="M122.79,27.46A26.74,26.74,0,0,1,125,16.79,27.44,27.44,0,0,1,139.59,2.16a27.43,27.43,0,0,1,21.34,0,27.38,27.38,0,0,1,14.63,14.63A27.38,27.38,0,0,1,176.93,34a27.18,27.18,0,0,1-2.19,5.88h4.86l-7.06,13.73H158.65a27.29,27.29,0,0,1-8.39,1.33,26.67,26.67,0,0,1-10.67-2.15A27.51,27.51,0,0,1,125,38.13,26.67,26.67,0,0,1,122.79,27.46Zm16.48,0a10.64,10.64,0,0,0,.87,4.28A11,11,0,0,0,146,37.58a10.94,10.94,0,0,0,8.55,0,11.11,11.11,0,0,0,3.5-2.35,11.23,11.23,0,0,0,2.35-3.49,11.06,11.06,0,0,0,0-8.55,10.93,10.93,0,0,0-5.85-5.85,11.06,11.06,0,0,0-8.55,0,11.23,11.23,0,0,0-3.49,2.35,11.11,11.11,0,0,0-2.35,3.5A10.59,10.59,0,0,0,139.27,27.46Z"/><path class="cls-1" d="M203.46,54.92a29.74,29.74,0,0,1-9-1.25,18.43,18.43,0,0,1-6.83-3.77,16.51,16.51,0,0,1-4.35-6.35,24.32,24.32,0,0,1-1.53-9V1.26h16.71V33.82a6.69,6.69,0,0,0,1.14,4.2,5.72,5.72,0,0,0,7.61,0,6.69,6.69,0,0,0,1.14-4.2V1.26h16.79V34.52a24.32,24.32,0,0,1-1.53,9,16.37,16.37,0,0,1-4.39,6.35,18.77,18.77,0,0,1-6.87,3.77A29.72,29.72,0,0,1,203.46,54.92Z"/><path class="cls-1" d="M243.63,1.26h12.55L276,53.59H259.55l-1.72-4.71H242l-1.73,4.71H223.78Zm9.8,36.09-3.53-9.18-3.53,9.18Z"/><path class="cls-1" d="M277.21,1.26h17.42v38.6h14.44V53.59H277.21Z"/><path class="cls-1" d="M311.81,1.26h30.84V15H328.52v5.8h13.89v13H328.52v6H343.2V53.59H311.81Z"/><path class="cls-1" d="M0,127.75V75.41H14.52a47.88,47.88,0,0,1,13.14,1.65A26.44,26.44,0,0,1,37.39,82a21.37,21.37,0,0,1,6,8.2,28.79,28.79,0,0,1,2.08,11.34,28.79,28.79,0,0,1-2.08,11.34,21.37,21.37,0,0,1-6,8.2,26.8,26.8,0,0,1-9.73,5,46.69,46.69,0,0,1-13.14,1.69Zm16.71-14.91q5.9,0,9.1-2.79T29,101.54q0-5.73-3.22-8.47t-9.1-2.75Z"/><path class="cls-1" d="M53.9,75.41H68.81L60.42,96.6H47.08Z"/><path class="cls-1" d="M69,111.51a26.81,26.81,0,0,0,3.61.86,29,29,0,0,0,3.57.63,36.06,36.06,0,0,0,4,.23c2.4,0,3.61-.89,3.61-2.67a3,3,0,0,0-1.1-2.08,32.57,32.57,0,0,0-2.79-2.35c-1.12-.86-2.32-1.82-3.61-2.86a26.14,26.14,0,0,1-3.6-3.61,18.65,18.65,0,0,1-2.79-4.59,14.71,14.71,0,0,1-1.1-5.85,15.05,15.05,0,0,1,1.34-6.51A13,13,0,0,1,73.83,78a16.63,16.63,0,0,1,5.54-2.86,22.64,22.64,0,0,1,6.78-1,36.61,36.61,0,0,1,3.77.19l3.37.36,3.38.47V89.85l-1.42-.16-1.41-.15a14.48,14.48,0,0,0-1.65-.08c-.31,0-.7,0-1.17,0a7.09,7.09,0,0,0-1.34.19,2.85,2.85,0,0,0-1.1.55,1.36,1.36,0,0,0-.47,1.1c0,.42.36.94,1.06,1.57s1.57,1.36,2.59,2.2,2.15,1.8,3.38,2.9a23.58,23.58,0,0,1,3.37,3.77,22,22,0,0,1,2.59,4.78,16,16,0,0,1,1.06,6,18.82,18.82,0,0,1-1.1,6.47,13.79,13.79,0,0,1-3.41,5.26,16.47,16.47,0,0,1-5.93,3.53,25.39,25.39,0,0,1-8.55,1.29,52.65,52.65,0,0,1-5.53-.27c-1.7-.19-3.21-.41-4.51-.67A38.57,38.57,0,0,1,69,127.2Z"/><path class="cls-1" d="M105.69,75.41h17.73v52.34H105.69Z"/><path class="cls-1" d="M128.91,75.41h17.42V114h14.44v13.73H128.91Z"/><path class="cls-1" d="M169.24,75.41l8.87,22.76,8.95-22.76h18.28l-20.4,52.34H171.36L151,75.41Z"/><path class="cls-1" d="M212.63,75.41h12.56L245,127.75H228.56L226.84,123H211l-1.73,4.71H192.78Zm9.81,36.1-3.53-9.18-3.53,9.18Z"/></g></g></svg>